<svg width="293" height="88" viewBox="0 0 293 88" fill="none" xmlns="http://www.w3.org/2000/svg">
<path d="M96.4453 42.1359V12.4414H114.672V14.6225C114.669 15.6933 114.241 16.7191 113.481 17.4751C112.721 18.2312 111.692 18.6557 110.619 18.6557H103.77V24.8943H112.804V27.0023C112.806 27.5463 112.7 28.0851 112.492 28.5878C112.283 29.0905 111.978 29.547 111.592 29.9311C111.206 30.3151 110.747 30.6191 110.243 30.8254C109.739 31.0317 109.199 31.1362 108.654 31.133H103.77V42.0994L96.4453 42.1359Z" fill="white"/>
<path d="M118.787 42.1368V12.4423H129.152C131.107 12.347 133.064 12.586 134.939 13.149C136.592 13.7632 138.004 14.8908 138.967 16.3658C139.97 17.9926 140.467 19.8795 140.396 21.7881C140.382 23.4476 139.963 25.0787 139.175 26.5402C138.47 27.9804 137.318 29.1554 135.891 29.891V29.9641C136.3 30.5386 136.675 31.1367 137.014 31.7553L142.838 42.1368H134.719L129.433 32.133H126.027V42.1368H118.787ZM126.112 25.8944H129.274C130.291 25.953 131.29 25.6118 132.058 24.9439C132.404 24.59 132.672 24.1675 132.845 23.7036C133.017 23.2397 133.09 22.7449 133.059 22.2511C133.147 21.606 133.025 20.9496 132.71 20.3791C132.396 19.8086 131.906 19.3542 131.313 19.083C130.432 18.7713 129.5 18.6307 128.566 18.6687H126.124L126.112 25.8944Z" fill="white"/>
<path d="M146.17 42.1359V12.4414H164.812V18.6679H153.446V24.0658H162.517V30.3044H153.446V35.9095H165.386V42.1359H146.17Z" fill="white"/>
<path d="M170.049 42.1359V12.4414H188.691V18.6679H177.337V24.0658H186.396V30.3044H177.337V35.9095H189.228V42.1359H170.049Z" fill="white"/>
<path d="M193.93 42.1359V12.4414H204.502C209.215 12.4414 212.95 13.7492 215.709 16.3649C218.468 18.9806 219.852 22.5995 219.86 27.2217C219.86 31.8763 218.477 35.5317 215.709 38.188C212.942 40.8444 209.206 42.1684 204.502 42.1603L193.93 42.1359ZM201.255 35.9095H204.246C205.342 35.9713 206.44 35.8038 207.468 35.4177C208.496 35.0316 209.432 34.4355 210.216 33.6675C211.749 31.8819 212.52 29.568 212.364 27.2217C212.442 26.0735 212.291 24.9213 211.92 23.8317C211.549 22.7421 210.966 21.7366 210.203 20.8733C209.414 20.1195 208.478 19.5349 207.453 19.1556C206.428 18.7764 205.337 18.6104 204.246 18.6679H201.255V35.9095Z" fill="white"/>
<path d="M222.973 27.0995C222.919 25.0931 223.278 23.097 224.03 21.2355C224.782 19.374 225.91 17.6869 227.344 16.2793C230.402 13.4888 234.395 11.9414 238.539 11.9414C242.682 11.9414 246.676 13.4888 249.734 16.2793C251.162 17.6901 252.286 19.3781 253.035 21.239C253.785 23.1 254.145 25.0945 254.092 27.0995C254.151 29.1453 253.795 31.1819 253.046 33.0872C252.297 34.9925 251.17 36.7274 249.734 38.1877C246.709 41.0449 242.703 42.6371 238.539 42.6371C234.374 42.6371 230.368 41.0449 227.344 38.1877C225.903 36.7296 224.773 34.9955 224.022 33.0898C223.271 31.1842 222.914 29.1465 222.973 27.0995ZM230.506 27.0995C230.427 29.4303 231.239 31.7037 232.776 33.46C233.508 34.2578 234.399 34.8949 235.391 35.3308C236.383 35.7667 237.455 35.9917 238.539 35.9917C239.623 35.9917 240.695 35.7667 241.687 35.3308C242.679 34.8949 243.569 34.2578 244.301 33.46C245.853 31.7099 246.678 29.4354 246.608 27.0995C246.69 24.8508 245.878 22.661 244.35 21.0071C243.6 20.2392 242.704 19.6289 241.715 19.2123C240.725 18.7956 239.662 18.5809 238.588 18.5809C237.513 18.5809 236.45 18.7956 235.461 19.2123C234.471 19.6289 233.575 20.2392 232.825 21.0071C231.274 22.6513 230.44 24.8423 230.506 27.0995Z" fill="white"/>
<path d="M257.596 42.1359L260.037 12.4414H267.948L272.246 24.9796L273.747 29.8536H273.833C274.382 27.8553 274.883 26.1981 275.322 24.9796L279.656 12.4414H287.567L290.009 42.1359H282.684L281.768 28.7326C281.707 28.0746 281.683 27.3313 281.683 26.5028C281.683 25.6742 281.683 25.004 281.683 24.5044V23.7612H281.597C280.926 25.8326 280.376 27.4897 279.937 28.7326L276.812 37.3351H270.659L267.533 28.7326L265.873 23.7612H265.788C265.898 25.4165 265.898 27.0773 265.788 28.7326L264.872 42.1359H257.596Z" fill="white"/>
<path d="M96.7871 73.9018V56.1484H101.133V63.2522H107.604V56.1484H111.962V73.9018H107.604V67.0173H101.133V73.9627L96.7871 73.9018Z" fill="white"/>
<path d="M114.757 64.9196C114.73 63.7292 114.943 62.5455 115.386 61.4398C115.829 60.3341 116.491 59.3293 117.333 58.4859C119.165 56.8068 121.561 55.875 124.048 55.875C126.535 55.875 128.931 56.8068 130.763 58.4859C131.62 59.3302 132.294 60.3412 132.743 61.4563C133.193 62.5714 133.408 63.7668 133.375 64.9683C133.409 66.1918 133.195 67.4096 132.747 68.5486C132.298 69.6877 131.623 70.7245 130.763 71.5969C128.949 73.3108 126.546 74.266 124.048 74.266C121.55 74.266 119.147 73.3108 117.333 71.5969C116.476 70.714 115.806 69.6676 115.363 68.5203C114.921 67.373 114.715 66.1483 114.757 64.9196ZM119.262 64.9196C119.215 66.3087 119.7 67.6635 120.617 68.709C121.055 69.1883 121.587 69.5712 122.181 69.8332C122.775 70.0952 123.417 70.2305 124.066 70.2305C124.716 70.2305 125.358 70.0952 125.952 69.8332C126.546 69.5712 127.078 69.1883 127.515 68.709C128.433 67.6635 128.917 66.3087 128.87 64.9196C128.918 63.5706 128.431 62.2572 127.515 61.2641C127.066 60.8054 126.53 60.4409 125.937 60.1921C125.345 59.9432 124.709 59.815 124.066 59.815C123.424 59.815 122.788 59.9432 122.195 60.1921C121.603 60.4409 121.067 60.8054 120.617 61.2641C119.688 62.2514 119.188 63.5655 119.226 64.9196H119.262Z" fill="white"/>
<path d="M136.098 73.9018V56.1484H140.456V70.1854H147.781V73.8409L136.098 73.9018Z" fill="white"/>
<path d="M149.832 73.9006V56.1472H156.156C158.612 56.0106 161.023 56.8519 162.858 58.4867C163.698 59.3381 164.35 60.3562 164.771 61.475C165.191 62.5938 165.372 63.7884 165.3 64.9812C165.373 66.1816 165.194 67.3839 164.773 68.5108C164.353 69.6378 163.7 70.6643 162.858 71.5245C161.952 72.34 160.894 72.9687 159.744 73.3744C158.593 73.7801 157.374 73.9547 156.156 73.8884L149.832 73.9006ZM154.19 70.2451H155.985C156.64 70.2824 157.296 70.1824 157.91 69.9515C158.524 69.7207 159.082 69.3641 159.55 68.9048C160.464 67.8371 160.924 66.4555 160.832 65.0543C160.88 64.3666 160.79 63.6763 160.568 63.0236C160.346 62.3708 159.995 61.7688 159.538 61.2527C159.069 60.8005 158.511 60.4501 157.899 60.2236C157.288 59.9971 156.636 59.8994 155.985 59.9367H154.19V70.2451Z" fill="white"/>
<path d="M168.182 73.9018V56.1484H172.528V73.9018H168.182Z" fill="white"/>
<path d="M176.264 73.9018V56.1484H180.683L185.566 64.4463C185.762 64.7875 185.982 65.214 186.238 65.6648C186.494 66.1157 186.677 66.5909 186.836 66.8833L187.056 67.3829C186.922 66.1035 186.86 65.0921 186.86 64.3489V56.1484H191.207V73.9018H186.836L181.879 65.6404C181.684 65.2871 181.452 64.8606 181.208 64.422C180.964 63.9833 180.756 63.4959 180.61 63.2035L180.39 62.7039C180.506 63.7113 180.571 64.724 180.585 65.7379V73.9993L176.264 73.9018Z" fill="white"/>
<path d="M194.112 64.9933C194.077 63.7869 194.293 62.5863 194.744 61.4667C195.196 60.3472 195.874 59.3326 196.737 58.4866C197.612 57.618 198.656 56.9366 199.804 56.4841C200.952 56.0316 202.181 55.8174 203.415 55.8547C205.913 55.7613 208.356 56.6045 210.263 58.2185L208.164 61.4719C207.581 60.9464 206.907 60.5333 206.174 60.2534C205.44 59.9763 204.663 59.8319 203.878 59.8269C203.19 59.7506 202.494 59.8258 201.838 60.0472C201.182 60.2685 200.583 60.6307 200.083 61.1081C199.582 61.5855 199.193 62.1666 198.941 62.8105C198.69 63.4544 198.584 64.1454 198.629 64.8349C198.592 65.5551 198.704 66.2751 198.958 66.9501C199.212 67.6252 199.603 68.2407 200.106 68.7584C200.58 69.2452 201.151 69.6277 201.781 69.8816C202.412 70.1355 203.089 70.2551 203.769 70.2328C205.102 70.2353 206.395 69.7792 207.431 68.9412V67.5765H204.916V63.921H211.203V73.9492H207.541V72.7307C206.925 73.2342 206.216 73.611 205.453 73.8395C204.615 74.1192 203.737 74.2631 202.853 74.266C201.72 74.2725 200.596 74.054 199.548 73.623C198.5 73.1921 197.549 72.5574 196.749 71.7559C195.859 70.8761 195.164 69.8194 194.71 68.6544C194.256 67.4894 194.052 66.242 194.112 64.9933Z" fill="white"/>
<path d="M220.055 64.9948C220.024 63.7888 220.241 62.5893 220.692 61.4702C221.144 60.3512 221.82 59.3363 222.679 58.488C223.562 57.6194 224.612 56.9392 225.767 56.4888C226.921 56.0384 228.155 55.8273 229.394 55.8683C230.642 55.8665 231.882 56.0809 233.057 56.5019C234.195 56.8982 235.233 57.5388 236.096 58.3784L234.082 61.6561C233.451 61.1011 232.734 60.6525 231.958 60.3279C231.213 60.0093 230.412 59.8396 229.602 59.8284C228.906 59.7806 228.209 59.8882 227.561 60.1433C226.913 60.3983 226.329 60.7944 225.854 61.3027C225.023 62.3085 224.589 63.5824 224.633 64.8851C224.583 66.2408 225.015 67.5704 225.854 68.638C226.309 69.1729 226.882 69.5954 227.528 69.8723C228.174 70.1493 228.875 70.2731 229.577 70.2343C230.473 70.2097 231.354 70.0024 232.167 69.6252C232.979 69.2481 233.706 68.7089 234.302 68.041L236.548 71.2212C235.628 72.1898 234.515 72.9556 233.281 73.4697C232.047 73.9838 230.719 74.2348 229.382 74.2065C228.146 74.2778 226.909 74.0892 225.751 73.653C224.593 73.2167 223.54 72.5426 222.659 71.6742C221.779 70.8057 221.091 69.7624 220.64 68.6118C220.189 67.4612 219.986 66.2289 220.043 64.9948H220.055Z" fill="white"/>
<path d="M237.378 64.9196C237.352 63.7262 237.57 62.5401 238.02 61.4339C238.469 60.3276 239.14 59.3245 239.991 58.4859C241.822 56.8068 244.218 55.875 246.705 55.875C249.192 55.875 251.588 56.8068 253.42 58.4859C254.275 59.3319 254.947 60.3433 255.396 61.458C255.846 62.5726 256.062 63.7672 256.032 64.9683C256.064 66.1915 255.849 67.4085 255.4 68.5471C254.951 69.6857 254.278 70.7228 253.42 71.5969C251.606 73.3108 249.203 74.266 246.705 74.266C244.207 74.266 241.804 73.3108 239.991 71.5969C239.124 70.7187 238.446 69.674 237.997 68.5261C237.548 67.3782 237.337 66.1512 237.378 64.9196ZM241.883 64.9196C241.836 66.3087 242.32 67.6635 243.238 68.709C243.675 69.1883 244.208 69.5712 244.801 69.8332C245.395 70.0952 246.038 70.2305 246.687 70.2305C247.336 70.2305 247.978 70.0952 248.572 69.8332C249.166 69.5712 249.699 69.1883 250.136 68.709C251.053 67.6635 251.538 66.3087 251.491 64.9196C251.539 63.5706 251.052 62.2572 250.136 61.2641C249.687 60.8054 249.15 60.4409 248.558 60.1921C247.966 59.9432 247.329 59.815 246.687 59.815C246.044 59.815 245.408 59.9432 244.816 60.1921C244.224 60.4409 243.687 60.8054 243.238 61.2641C242.322 62.2572 241.835 63.5706 241.883 64.9196Z" fill="white"/>
<path d="M258.816 73.9011V56.1478H264.921C266.088 56.0938 267.256 56.238 268.376 56.5742C269.378 56.9331 270.235 57.6091 270.817 58.4994C271.419 59.4713 271.721 60.5987 271.684 61.7406C271.698 62.7263 271.471 63.7005 271.025 64.5797C270.602 65.4397 269.913 66.1405 269.059 66.578C269.307 66.9198 269.531 67.2781 269.731 67.6503L273.186 73.8524H268.302L265.14 67.8696H263.102V73.8524L258.816 73.9011ZM263.175 64.1532H265.067C265.673 64.193 266.27 63.9914 266.727 63.5927C266.934 63.3787 267.094 63.1242 267.197 62.8452C267.3 62.5662 267.344 62.2689 267.326 61.9721C267.379 61.5878 267.307 61.1964 267.12 60.8562C266.933 60.5159 266.641 60.2449 266.288 60.0835C265.759 59.8998 265.2 59.8172 264.64 59.8398H263.175V64.1532Z" fill="white"/>
<path d="M275.127 73.9016V56.1482H282.525C283.306 56.1196 284.083 56.2581 284.805 56.5545C285.528 56.8508 286.178 57.2981 286.713 57.8663C287.257 58.4556 287.68 59.1465 287.956 59.8992C288.233 60.652 288.358 61.4518 288.324 62.2528C288.389 63.8848 287.811 65.4772 286.713 66.6881C286.181 67.2604 285.531 67.7113 284.808 68.0099C284.086 68.3085 283.307 68.4478 282.525 68.4184H279.485V73.9016H275.127ZM279.485 64.6898H281.622C281.935 64.7109 282.249 64.6616 282.54 64.5456C282.832 64.4296 283.094 64.2499 283.307 64.0196C283.714 63.5233 283.923 62.8938 283.893 62.2528C283.923 61.625 283.718 61.0084 283.319 60.5226C283.114 60.3001 282.862 60.1266 282.581 60.0147C282.3 59.9029 281.997 59.8558 281.695 59.8768H279.485V64.6898Z" fill="white"/>
<path d="M288.922 71.8903C288.922 71.3507 289.137 70.8331 289.519 70.4515C289.901 70.0699 290.42 69.8555 290.961 69.8555C291.501 69.8555 292.02 70.0699 292.402 70.4515C292.785 70.8331 292.999 71.3507 292.999 71.8903C292.999 72.43 292.785 72.9476 292.402 73.3292C292.02 73.7108 291.501 73.9252 290.961 73.9252C290.693 73.9268 290.427 73.8753 290.179 73.7736C289.93 73.6719 289.705 73.5221 289.515 73.3328C289.326 73.1435 289.176 72.9186 289.074 72.671C288.972 72.4233 288.92 72.158 288.922 71.8903Z" fill="white"/>
<path d="M37.736 87C37.736 87 0 75.8752 0 21.0067V0H75.4841V21.0067C75.4841 73.9134 37.736 87 37.736 87Z" fill="#4FB84F"/>
<path d="M59.5277 21.1667H29.1289V38.6033H59.5277V43.8671C59.5277 52.7012 57.086 59.8293 43.5836 59.8537H29.1289V82.8587C31.8188 84.5895 34.7088 85.9887 37.7358 87.026C37.7358 87.026 75.4839 73.915 75.4839 21.0083V5.16797C75.4839 14.0142 71.5651 21.0083 59.5277 21.1667Z" fill="#045433"/>
</svg>
